<mxfile host="65bd71144e">
    <diagram id="m_X8r33a5cIpNPcMOQg0" name="Page-1">
        <mxGraphModel dx="1023" dy="787" grid="1" gridSize="10" guides="1" tooltips="1" connect="1" arrows="1" fold="1" page="1" pageScale="1" pageWidth="827" pageHeight="1169" math="0" shadow="0">
            <root>
                <mxCell id="0"/>
                <mxCell id="1" parent="0"/>
                <mxCell id="tTAP2a07HPg8SshBc6MR-1" value="Automat" style="swimlane;fontStyle=1;align=center;verticalAlign=top;childLayout=stackLayout;horizontal=1;startSize=26;horizontalStack=0;resizeParent=1;resizeParentMax=0;resizeLast=0;collapsible=1;marginBottom=0;fontFamily=Tahoma;" parent="1" vertex="1">
                    <mxGeometry x="50" y="140" width="280" height="530" as="geometry"/>
                </mxCell>
                <mxCell id="21" value="+ Bildschirm: boolean" style="text;html=1;align=center;verticalAlign=middle;resizable=0;points=[];autosize=1;strokeColor=none;fillColor=none;" parent="tTAP2a07HPg8SshBc6MR-1" vertex="1">
                    <mxGeometry y="26" width="280" height="30" as="geometry"/>
                </mxCell>
                <mxCell id="11" value="+ Eingabe: Scanner" style="text;html=1;align=center;verticalAlign=middle;resizable=0;points=[];autosize=1;strokeColor=none;fillColor=none;" parent="tTAP2a07HPg8SshBc6MR-1" vertex="1">
                    <mxGeometry y="56" width="280" height="30" as="geometry"/>
                </mxCell>
                <mxCell id="41" value="+ Bestellungen: ArrayList" style="text;html=1;align=center;verticalAlign=middle;resizable=0;points=[];autosize=1;strokeColor=none;fillColor=none;" vertex="1" parent="tTAP2a07HPg8SshBc6MR-1">
                    <mxGeometry y="86" width="280" height="30" as="geometry"/>
                </mxCell>
                <mxCell id="40" value="+ Geldschlitz: Scanner" style="text;html=1;align=center;verticalAlign=middle;resizable=0;points=[];autosize=1;strokeColor=none;fillColor=none;" vertex="1" parent="tTAP2a07HPg8SshBc6MR-1">
                    <mxGeometry y="116" width="280" height="30" as="geometry"/>
                </mxCell>
                <mxCell id="48" value="+ Ausgabe: Printer" style="text;html=1;align=center;verticalAlign=middle;resizable=0;points=[];autosize=1;strokeColor=none;fillColor=none;" vertex="1" parent="tTAP2a07HPg8SshBc6MR-1">
                    <mxGeometry y="146" width="280" height="30" as="geometry"/>
                </mxCell>
                <mxCell id="tTAP2a07HPg8SshBc6MR-3" value="" style="line;strokeWidth=1;fillColor=none;align=left;verticalAlign=middle;spacingTop=-1;spacingLeft=3;spacingRight=3;rotatable=0;labelPosition=right;points=[];portConstraint=eastwest;fontFamily=Tahoma;" parent="tTAP2a07HPg8SshBc6MR-1" vertex="1">
                    <mxGeometry y="176" width="280" height="234" as="geometry"/>
                </mxCell>
                <mxCell id="55" value="+ Begrüßung: String" style="text;html=1;align=center;verticalAlign=middle;resizable=0;points=[];autosize=1;strokeColor=none;fillColor=none;" vertex="1" parent="tTAP2a07HPg8SshBc6MR-1">
                    <mxGeometry y="410" width="280" height="30" as="geometry"/>
                </mxCell>
                <mxCell id="53" value="+ Auswahl: Bestellung" style="text;html=1;align=center;verticalAlign=middle;resizable=0;points=[];autosize=1;strokeColor=none;fillColor=none;" vertex="1" parent="tTAP2a07HPg8SshBc6MR-1">
                    <mxGeometry y="440" width="280" height="30" as="geometry"/>
                </mxCell>
                <mxCell id="54" value="+ Kontrolle: S&lt;span style=&quot;color: rgba(0, 0, 0, 0); font-family: monospace; font-size: 0px; text-align: start;&quot;&gt;%3CmxGraphModel%3E%3Croot%3E%3CmxCell%20id%3D%220%22%2F%3E%3CmxCell%20id%3D%221%22%20parent%3D%220%22%2F%3E%3CmxCell%20id%3D%222%22%20value%3D%22%2B%20Begr%C3%BC%C3%9Fung%3A%20String%22%20style%3D%22text%3Bhtml%3D1%3Balign%3Dcenter%3BverticalAlign%3Dmiddle%3Bresizable%3D0%3Bpoints%3D%5B%5D%3Bautosize%3D1%3BstrokeColor%3Dnone%3BfillColor%3Dnone%3B%22%20vertex%3D%221%22%20parent%3D%221%22%3E%3CmxGeometry%20x%3D%2250%22%20y%3D%22550%22%20width%3D%22280%22%20height%3D%2230%22%20as%3D%22geometry%22%2F%3E%3C%2FmxCell%3E%3C%2Froot%3E%3C%2FmxGraphModel%3E&lt;/span&gt;tring" style="text;html=1;align=center;verticalAlign=middle;resizable=0;points=[];autosize=1;strokeColor=none;fillColor=none;" vertex="1" parent="tTAP2a07HPg8SshBc6MR-1">
                    <mxGeometry y="470" width="280" height="30" as="geometry"/>
                </mxCell>
                <mxCell id="56" value="+ Ausgabe: S&lt;span style=&quot;color: rgba(0, 0, 0, 0); font-family: monospace; font-size: 0px; text-align: start;&quot;&gt;%3CmxGraphModel%3E%3Croot%3E%3CmxCell%20id%3D%220%22%2F%3E%3CmxCell%20id%3D%221%22%20parent%3D%220%22%2F%3E%3CmxCell%20id%3D%222%22%20value%3D%22%2B%20Begr%C3%BC%C3%9Fung%3A%20String%22%20style%3D%22text%3Bhtml%3D1%3Balign%3Dcenter%3BverticalAlign%3Dmiddle%3Bresizable%3D0%3Bpoints%3D%5B%5D%3Bautosize%3D1%3BstrokeColor%3Dnone%3BfillColor%3Dnone%3B%22%20vertex%3D%221%22%20parent%3D%221%22%3E%3CmxGeometry%20x%3D%2250%22%20y%3D%22550%22%20width%3D%22280%22%20height%3D%2230%22%20as%3D%22geometry%22%2F%3E%3C%2FmxCell%3E%3C%2Froot%3E%3C%2FmxGraphModel%3E&lt;/span&gt;tring" style="text;html=1;align=center;verticalAlign=middle;resizable=0;points=[];autosize=1;strokeColor=none;fillColor=none;" vertex="1" parent="tTAP2a07HPg8SshBc6MR-1">
                    <mxGeometry y="500" width="280" height="30" as="geometry"/>
                </mxCell>
                <mxCell id="tTAP2a07HPg8SshBc6MR-5" value="Bankfiliale" style="swimlane;fontStyle=1;align=center;verticalAlign=top;childLayout=stackLayout;horizontal=1;startSize=26;horizontalStack=0;resizeParent=1;resizeParentMax=0;resizeLast=0;collapsible=1;marginBottom=0;fontFamily=Tahoma;" parent="1" vertex="1">
                    <mxGeometry x="36" y="980" width="350" height="90" as="geometry"/>
                </mxCell>
                <mxCell id="tTAP2a07HPg8SshBc6MR-7" value="" style="line;strokeWidth=1;fillColor=none;align=left;verticalAlign=middle;spacingTop=-1;spacingLeft=3;spacingRight=3;rotatable=0;labelPosition=right;points=[];portConstraint=eastwest;fontFamily=Tahoma;" parent="tTAP2a07HPg8SshBc6MR-5" vertex="1">
                    <mxGeometry y="26" width="350" height="64" as="geometry"/>
                </mxCell>
                <mxCell id="tTAP2a07HPg8SshBc6MR-9" value="Bankautomat" style="swimlane;fontStyle=1;align=center;verticalAlign=top;childLayout=stackLayout;horizontal=1;startSize=26;horizontalStack=0;resizeParent=1;resizeParentMax=0;resizeLast=0;collapsible=1;marginBottom=0;fontFamily=Tahoma;" parent="1" vertex="1">
                    <mxGeometry x="516" y="990" width="230" height="60" as="geometry">
                        <mxRectangle x="520" y="580" width="110" height="26" as="alternateBounds"/>
                    </mxGeometry>
                </mxCell>
                <mxCell id="tTAP2a07HPg8SshBc6MR-11" value="" style="line;strokeWidth=1;fillColor=none;align=left;verticalAlign=middle;spacingTop=-1;spacingLeft=3;spacingRight=3;rotatable=0;labelPosition=right;points=[];portConstraint=eastwest;fontFamily=Tahoma;" parent="tTAP2a07HPg8SshBc6MR-9" vertex="1">
                    <mxGeometry y="26" width="230" height="34" as="geometry"/>
                </mxCell>
                <mxCell id="62" style="edgeStyle=none;html=1;entryX=0.506;entryY=1.067;entryDx=0;entryDy=0;entryPerimeter=0;" edge="1" parent="1" source="7agwImmPFsY-DywsZ6ng-5" target="59">
                    <mxGeometry relative="1" as="geometry"/>
                </mxCell>
                <mxCell id="7agwImmPFsY-DywsZ6ng-5" value="Eis Deko" style="swimlane;fontStyle=1;align=center;verticalAlign=top;childLayout=stackLayout;horizontal=1;startSize=26;horizontalStack=0;resizeParent=1;resizeParentMax=0;resizeLast=0;collapsible=1;marginBottom=0;fontFamily=Tahoma;" parent="1" vertex="1">
                    <mxGeometry x="410" y="450" width="160" height="300" as="geometry"/>
                </mxCell>
                <mxCell id="29" value="+ Typ: String&lt;span style=&quot;color: rgba(0, 0, 0, 0); font-family: monospace; font-size: 0px; text-align: start;&quot;&gt;CmxGraphModel%3E%3Croot%3E%3CmxCell%20id%3D%220%22%2F%3E%3CmxCell%20id%3D%221%22%20parent%3D%220%22%2F%3E%3CmxCell%20id%3D%222%22%20value%3D%22%2B%20BLZ%3A%20String%22%20style%3D%22text%3Bhtml%3D1%3Balign%3Dcenter%3BverticalAlign%3Dmiddle%3Bresizable%3D0%3Bpoints%3D%5B%5D%3Bautosize%3D1%3BstrokeColor%3Dnone%3BfillColor%3Dnone%3B%22%20vertex%3D%221%22%20parent%3D%221%22%3E%3CmxGeometry%20x%3D%2250%22%20y%3D%22106%22%20width%3D%22280%22%20height%3D%2230%22%20as%3D%22geometry%22%2F%3E%3C%2FmxCell%3E%3C%2Froot%3E%3C%2FmxGraphModel%3E&lt;/span&gt;" style="text;html=1;align=center;verticalAlign=middle;resizable=0;points=[];autosize=1;strokeColor=none;fillColor=none;" parent="7agwImmPFsY-DywsZ6ng-5" vertex="1">
                    <mxGeometry y="26" width="160" height="30" as="geometry"/>
                </mxCell>
                <mxCell id="57" value="+ Preis: int" style="text;html=1;align=center;verticalAlign=middle;resizable=0;points=[];autosize=1;strokeColor=none;fillColor=none;" vertex="1" parent="7agwImmPFsY-DywsZ6ng-5">
                    <mxGeometry y="56" width="160" height="30" as="geometry"/>
                </mxCell>
                <mxCell id="64" value="+ StandAlone: int" style="text;html=1;align=center;verticalAlign=middle;resizable=0;points=[];autosize=1;strokeColor=none;fillColor=none;" vertex="1" parent="7agwImmPFsY-DywsZ6ng-5">
                    <mxGeometry y="86" width="160" height="30" as="geometry"/>
                </mxCell>
                <mxCell id="7agwImmPFsY-DywsZ6ng-7" value="" style="line;strokeWidth=1;fillColor=none;align=left;verticalAlign=middle;spacingTop=-1;spacingLeft=3;spacingRight=3;rotatable=0;labelPosition=right;points=[];portConstraint=eastwest;fontFamily=Tahoma;" parent="7agwImmPFsY-DywsZ6ng-5" vertex="1">
                    <mxGeometry y="116" width="160" height="184" as="geometry"/>
                </mxCell>
                <mxCell id="8" value="1:1" style="edgeStyle=none;html=1;exitX=0;exitY=0.5;exitDx=0;exitDy=0;endArrow=classic;endFill=1;" parent="1" source="2" target="41" edge="1">
                    <mxGeometry relative="1" as="geometry">
                        <mxPoint x="320" y="470" as="targetPoint"/>
                    </mxGeometry>
                </mxCell>
                <mxCell id="2" value="Bestellung/Gefäß" style="swimlane;fontStyle=1;align=center;verticalAlign=top;childLayout=stackLayout;horizontal=1;startSize=26;horizontalStack=0;resizeParent=1;resizeParentMax=0;resizeLast=0;collapsible=1;marginBottom=0;fontFamily=Tahoma;" parent="1" vertex="1">
                    <mxGeometry x="450" y="180" width="235" height="150" as="geometry">
                        <mxRectangle x="500" y="166" width="150" height="30" as="alternateBounds"/>
                    </mxGeometry>
                </mxCell>
                <mxCell id="61" value="+ Gefäß: [1..6] Waffel Becher Deko" style="text;html=1;align=center;verticalAlign=middle;resizable=0;points=[];autosize=1;strokeColor=none;fillColor=none;" vertex="1" parent="2">
                    <mxGeometry y="26" width="235" height="30" as="geometry"/>
                </mxCell>
                <mxCell id="3" value="" style="line;strokeWidth=1;fillColor=none;align=left;verticalAlign=middle;spacingTop=-1;spacingLeft=3;spacingRight=3;rotatable=0;labelPosition=right;points=[];portConstraint=eastwest;fontFamily=Tahoma;" parent="2" vertex="1">
                    <mxGeometry y="56" width="235" height="34" as="geometry"/>
                </mxCell>
                <mxCell id="60" value="+ Hinzufügen: void" style="text;html=1;align=center;verticalAlign=middle;resizable=0;points=[];autosize=1;strokeColor=none;fillColor=none;" vertex="1" parent="2">
                    <mxGeometry y="90" width="235" height="30" as="geometry"/>
                </mxCell>
                <mxCell id="59" value="+ Entfernen: void" style="text;html=1;align=center;verticalAlign=middle;resizable=0;points=[];autosize=1;strokeColor=none;fillColor=none;" vertex="1" parent="2">
                    <mxGeometry y="120" width="235" height="30" as="geometry"/>
                </mxCell>
            </root>
        </mxGraphModel>
    </diagram>
</mxfile>